<?xml version="1.0" encoding="UTF-8" standalone="no"?>
<!DOCTYPE svg PUBLIC "-//W3C//DTD SVG 1.1//EN" "http://www.w3.org/Graphics/SVG/1.1/DTD/svg11.dtd">
<!-- 由 Microsoft Visio, SVG Export 生成 Figure2_ICFG插图.svg Page-1 -->
<svg xmlns="http://www.w3.org/2000/svg" xmlns:xlink="http://www.w3.org/1999/xlink" xmlns:ev="http://www.w3.org/2001/xml-events"
		xmlns:v="http://schemas.microsoft.com/visio/2003/SVGExtensions/" width="11.6929in" height="8.26772in"
		viewBox="0 0 841.89 595.276" xml:space="preserve" color-interpolation-filters="sRGB" class="st14">
	<v:documentProperties v:langID="2052" v:metric="true" v:viewMarkup="false">
		<v:userDefs>
			<v:ud v:nameU="msvSubprocessMaster" v:prompt="" v:val="VT4(Rectangle)"/>
			<v:ud v:nameU="msvNoAutoConnect" v:val="VT0(1):26"/>
		</v:userDefs>
	</v:documentProperties>

	<style type="text/css">
	<![CDATA[
		.st1 {fill:#ffff00;stroke:#c7c8c8;stroke-width:0.25}
		.st2 {fill:#4672c4;stroke:#c7c8c8;stroke-width:0.25}
		.st3 {fill:none;stroke:none;stroke-width:0.25}
		.st4 {fill:#4672c4;font-family:Calibri;font-size:0.833336em;font-weight:bold}
		.st5 {font-size:1em}
		.st6 {marker-end:url(#mrkr4-17);stroke:#ff0000;stroke-linecap:round;stroke-linejoin:round;stroke-width:1}
		.st7 {fill:#ff0000;fill-opacity:1;stroke:#ff0000;stroke-opacity:1;stroke-width:0.28409090909091}
		.st8 {marker-end:url(#mrkr4-17);stroke:#ff0000;stroke-dasharray:7,5;stroke-linecap:round;stroke-linejoin:round;stroke-width:1}
		.st9 {fill:#ff0000;stroke:#c7c8c8;stroke-width:0.25}
		.st10 {fill:#000000;stroke:#c7c8c8;stroke-width:0.25}
		.st11 {marker-end:url(#mrkr4-89);stroke:#4672c4;stroke-linecap:round;stroke-linejoin:round;stroke-width:1}
		.st12 {fill:#4672c4;fill-opacity:1;stroke:#4672c4;stroke-opacity:1;stroke-width:0.28409090909091}
		.st13 {marker-end:url(#mrkr4-89);stroke:#4672c4;stroke-dasharray:7,5;stroke-linecap:round;stroke-linejoin:round;stroke-width:1}
		.st14 {fill:none;fill-rule:evenodd;font-size:12px;overflow:visible;stroke-linecap:square;stroke-miterlimit:3}
	]]>
	</style>

	<defs id="Markers">
		<g id="lend4">
			<path d="M 2 1 L 0 0 L 2 -1 L 2 1 " style="stroke:none"/>
		</g>
		<marker id="mrkr4-17" class="st7" v:arrowType="4" v:arrowSize="2" v:setback="7.04" refX="-7.04" orient="auto"
				markerUnits="strokeWidth" overflow="visible">
			<use xlink:href="#lend4" transform="scale(-3.52,-3.52) "/>
		</marker>
		<marker id="mrkr4-89" class="st12" v:arrowType="4" v:arrowSize="2" v:setback="7.04" refX="-7.04" orient="auto"
				markerUnits="strokeWidth" overflow="visible">
			<use xlink:href="#lend4" transform="scale(-3.52,-3.52) "/>
		</marker>
	</defs>
	<g v:mID="0" v:index="1" v:groupContext="foregroundPage">
		<v:userDefs>
			<v:ud v:nameU="msvThemeOrder" v:val="VT0(0):26"/>
		</v:userDefs>
		<title>页-1</title>
		<v:pageProperties v:drawingScale="0.0393701" v:pageScale="0.0393701" v:drawingUnits="24" v:shadowOffsetX="8.50394"
				v:shadowOffsetY="-8.50394"/>
		<v:layer v:name="连接线" v:index="0"/>
		<g id="shape1-1" v:mID="1" v:groupContext="shape" transform="translate(226.772,-477.638)">
			<title>圆形</title>
			<v:userDefs>
				<v:ud v:nameU="visVersion" v:val="VT0(15):26"/>
			</v:userDefs>
			<path d="M0 583.23 A12.0472 12.0472 0 0 1 24.09 583.23 A12.0472 12.0472 0 1 1 0 583.23 Z" class="st1"/>
		</g>
		<g id="shape2-3" v:mID="2" v:groupContext="shape" transform="translate(226.772,-434.268)">
			<title>圆形.2</title>
			<v:userDefs>
				<v:ud v:nameU="visVersion" v:val="VT0(15):26"/>
			</v:userDefs>
			<path d="M0 583.23 A12.0472 12.0472 0 0 1 24.09 583.23 A12.0472 12.0472 0 1 1 0 583.23 Z" class="st2"/>
		</g>
		<g id="shape3-5" v:mID="3" v:groupContext="shape" transform="translate(85.0394,-439.087)">
			<title>工作表.3</title>
			<desc>tokenSale.buyTokensWithWei()</desc>
			<v:textBlock v:margins="rect(4,4,4,4)" v:tabSpace="42.5197"/>
			<v:textRect cx="70.8661" cy="585.638" width="141.74" height="19.2756"/>
			<rect x="0" y="576" width="141.732" height="19.2756" class="st3"/>
			<text x="4.87" y="589.24" class="st4" v:langID="1033"><v:paragraph v:horizAlign="1"/><v:tabList/>tokenSale.buyTokensWithWei()</text>		</g>
		<g id="shape8-8" v:mID="8" v:groupContext="shape" transform="translate(113.386,-482.457)">
			<title>工作表.8</title>
			<desc>Combination_entryPoint</desc>
			<v:textBlock v:margins="rect(4,4,4,4)" v:tabSpace="42.5197"/>
			<v:textRect cx="56.6929" cy="585.638" width="113.39" height="19.2756"/>
			<rect x="0" y="576" width="113.386" height="19.2756" class="st3"/>
			<text x="5.33" y="589.24" class="st4" v:langID="1033"><v:paragraph v:horizAlign="1"/><v:tabList/>Combination_<tspan
						class="st5" v:langID="2052">entryPoint</tspan></text>		</g>
		<g id="shape10-12" v:mID="10" v:groupContext="shape" v:layerMember="0" transform="translate(231.732,-477.638)">
			<title>动态连接线</title>
			<path d="M7.09 595.28 L7.09 607.51" class="st6"/>
		</g>
		<g id="shape11-18" v:mID="11" v:groupContext="shape" transform="translate(226.772,-347.528)">
			<title>圆形.11</title>
			<v:userDefs>
				<v:ud v:nameU="visVersion" v:val="VT0(15):26"/>
			</v:userDefs>
			<path d="M0 583.23 A12.0472 12.0472 0 0 1 24.09 583.23 A12.0472 12.0472 0 1 1 0 583.23 Z" class="st2"/>
		</g>
		<g id="shape13-20" v:mID="13" v:groupContext="shape" v:layerMember="0" transform="translate(231.732,-434.268)">
			<title>动态连接线.13</title>
			<path d="M7.09 595.28 L7.09 650.88" class="st6"/>
		</g>
		<g id="shape14-25" v:mID="14" v:groupContext="shape" transform="translate(105.881,-349.937)">
			<title>工作表.14</title>
			<desc>tokenSale.buyTokens();</desc>
			<v:textBlock v:margins="rect(4,4,4,4)" v:tabSpace="42.5197"/>
			<v:textRect cx="64.1973" cy="585.638" width="128.4" height="19.2756"/>
			<rect x="0" y="576" width="128.395" height="19.2756" class="st3"/>
			<text x="15.28" y="589.24" class="st4" v:langID="1033"><v:paragraph v:horizAlign="1"/><v:tabList/>tokenSale.buyTokens();</text>		</g>
		<g id="shape17-28" v:mID="17" v:groupContext="shape" transform="translate(283.465,-434.268)">
			<title>圆形.17</title>
			<v:userDefs>
				<v:ud v:nameU="visVersion" v:val="VT0(15):26"/>
			</v:userDefs>
			<path d="M0 583.23 A12.0472 12.0472 0 0 1 24.09 583.23 A12.0472 12.0472 0 1 1 0 583.23 Z" class="st1"/>
		</g>
		<g id="shape18-30" v:mID="18" v:groupContext="shape" v:layerMember="0" transform="translate(250.866,-439.228)">
			<title>动态连接线.18</title>
			<path d="M0 588.19 L25.56 588.19" class="st8"/>
		</g>
		<g id="shape19-35" v:mID="19" v:groupContext="shape" transform="translate(311.811,-434.551)">
			<title>工作表.19</title>
			<desc>buyTokensWithWei_entryPoint</desc>
			<v:textBlock v:margins="rect(4,4,4,4)" v:tabSpace="42.5197"/>
			<v:textRect cx="70.8661" cy="583.228" width="141.74" height="24.0945"/>
			<rect x="0" y="571.181" width="141.732" height="24.0945" class="st3"/>
			<text x="5.36" y="586.83" class="st4" v:langID="1033"><v:paragraph v:horizAlign="1"/><v:tabList/>buyTokensWithWei_<tspan
						class="st5" v:langID="2052">entryPoint</tspan></text>		</g>
		<g id="shape23-39" v:mID="23" v:groupContext="shape" transform="translate(283.465,-390.898)">
			<title>圆形.23</title>
			<v:userDefs>
				<v:ud v:nameU="visVersion" v:val="VT0(15):26"/>
			</v:userDefs>
			<path d="M0 583.23 A12.0472 12.0472 0 0 1 24.09 583.23 A12.0472 12.0472 0 1 1 0 583.23 Z" class="st9"/>
		</g>
		<g id="shape24-41" v:mID="24" v:groupContext="shape" v:layerMember="0" transform="translate(288.425,-434.268)">
			<title>动态连接线.24</title>
			<path d="M7.09 595.28 L7.09 607.51" class="st6"/>
		</g>
		<g id="shape25-46" v:mID="25" v:groupContext="shape" transform="translate(310.976,-395.717)">
			<title>工作表.25</title>
			<desc>wallet.transfer(weiAmount);</desc>
			<v:textBlock v:margins="rect(4,4,4,4)" v:tabSpace="42.5197"/>
			<v:textRect cx="64.1973" cy="584.362" width="128.4" height="21.8271"/>
			<rect x="0" y="573.449" width="128.395" height="21.8271" class="st3"/>
			<text x="4.58" y="593.36" class="st4" v:langID="1033"><v:paragraph v:horizAlign="1"/><v:tabList/>wallet.transfer(weiAmount);</text>		</g>
		<g id="shape26-49" v:mID="26" v:groupContext="shape" v:layerMember="0" transform="translate(283.465,-402.945)">
			<title>动态连接线.26</title>
			<path d="M0 595.28 L-38.88 568" class="st8"/>
		</g>
		<g id="shape27-54" v:mID="27" v:groupContext="shape" transform="translate(283.465,-347.528)">
			<title>圆形.27</title>
			<v:userDefs>
				<v:ud v:nameU="visVersion" v:val="VT0(15):26"/>
			</v:userDefs>
			<path d="M0 583.23 A12.0472 12.0472 0 0 1 24.09 583.23 A12.0472 12.0472 0 1 1 0 583.23 Z" class="st1"/>
		</g>
		<g id="shape28-56" v:mID="28" v:groupContext="shape" v:layerMember="0" transform="translate(250.866,-352.488)">
			<title>动态连接线.28</title>
			<path d="M0 588.19 L25.56 588.19" class="st8"/>
		</g>
		<g id="shape29-61" v:mID="29" v:groupContext="shape" transform="translate(310.976,-352.488)">
			<title>工作表.29</title>
			<desc>buyTokens_entryPoint</desc>
			<v:textBlock v:margins="rect(4,4,4,4)" v:tabSpace="42.5197"/>
			<v:textRect cx="64.1973" cy="588.189" width="128.4" height="14.1732"/>
			<rect x="0" y="581.102" width="128.395" height="14.1732" class="st3"/>
			<text x="17.14" y="591.19" class="st4" v:langID="1033"><v:paragraph v:horizAlign="1"/><v:tabList/>buyTokens<tspan
						class="st5" v:langID="2052">_entryPoint</tspan></text>		</g>
		<g id="shape30-65" v:mID="30" v:groupContext="shape" transform="translate(283.465,-304.299)">
			<title>圆形.30</title>
			<v:userDefs>
				<v:ud v:nameU="visVersion" v:val="VT0(15):26"/>
			</v:userDefs>
			<path d="M0 583.23 A12.0472 12.0472 0 0 1 24.09 583.23 A12.0472 12.0472 0 1 1 0 583.23 Z" class="st2"/>
		</g>
		<g id="shape31-67" v:mID="31" v:groupContext="shape" transform="translate(311.811,-309.26)">
			<title>工作表.31</title>
			<desc>starAllocationToTokenSale &#62; 0</desc>
			<v:textBlock v:margins="rect(4,4,4,4)" v:tabSpace="42.5197"/>
			<v:textRect cx="70.8661" cy="588.189" width="141.74" height="14.1732"/>
			<rect x="0" y="581.102" width="141.732" height="14.1732" class="st3"/>
			<text x="8.04" y="591.19" class="st4" v:langID="1033"><v:paragraph v:horizAlign="1"/><v:tabList/>starAllocationToTokenSale &#62; 0</text>		</g>
		<g id="shape33-70" v:mID="33" v:groupContext="shape" transform="translate(283.465,-261.071)">
			<title>圆形.33</title>
			<v:userDefs>
				<v:ud v:nameU="visVersion" v:val="VT0(15):26"/>
			</v:userDefs>
			<path d="M0 583.23 A12.0472 12.0472 0 0 1 24.09 583.23 A12.0472 12.0472 0 1 1 0 583.23 Z" class="st10"/>
		</g>
		<g id="shape34-72" v:mID="34" v:groupContext="shape" v:layerMember="0" transform="translate(288.425,-347.528)">
			<title>动态连接线.34</title>
			<path d="M7.09 595.28 L7.09 607.37" class="st6"/>
		</g>
		<g id="shape35-77" v:mID="35" v:groupContext="shape" transform="translate(340.157,-261.071)">
			<title>圆形.35</title>
			<v:userDefs>
				<v:ud v:nameU="visVersion" v:val="VT0(15):26"/>
			</v:userDefs>
			<path d="M0 583.23 A12.0472 12.0472 0 0 1 24.09 583.23 A12.0472 12.0472 0 1 1 0 583.23 Z" class="st2"/>
		</g>
		<g id="shape36-79" v:mID="36" v:groupContext="shape" v:layerMember="0" transform="translate(288.425,-304.299)">
			<title>动态连接线.36</title>
			<path d="M7.09 595.28 L7.09 607.37" class="st6"/>
		</g>
		<g id="shape37-84" v:mID="37" v:groupContext="shape" v:layerMember="0" transform="translate(295.512,-304.299)">
			<title>动态连接线.37</title>
			<path d="M0 595.28 L50.02 612.16" class="st11"/>
		</g>
		<g id="shape38-90" v:mID="38" v:groupContext="shape" transform="translate(128.976,-248.74)">
			<title>工作表.38</title>
			<desc>tokenOnSale.mint(beneficiary, tokens);</desc>
			<v:textBlock v:margins="rect(4,4,4,4)" v:tabSpace="42.5197"/>
			<v:textRect cx="89.2913" cy="588.898" width="178.59" height="12.7559"/>
			<rect x="0" y="582.52" width="178.583" height="12.7559" class="st3"/>
			<text x="7.51" y="591.9" class="st4" v:langID="1033"><v:paragraph v:horizAlign="1"/><v:tabList/>tokenOnSale.mint(beneficiary, tokens);</text>		</g>
		<g id="shape41-93" v:mID="41" v:groupContext="shape" v:layerMember="0" transform="translate(283.465,-273.118)">
			<title>动态连接线.41</title>
			<path d="M0 595.28 L-30.11 515.41" class="st13"/>
		</g>
		<g id="shape42-98" v:mID="42" v:groupContext="shape" transform="translate(363.543,-269.291)">
			<title>工作表.42</title>
			<desc>endIF</desc>
			<v:textBlock v:margins="rect(4,4,4,4)" v:tabSpace="42.5197"/>
			<v:textRect cx="19.1339" cy="588.189" width="38.27" height="14.1732"/>
			<rect x="0" y="581.102" width="38.2677" height="14.1732" class="st3"/>
			<text x="7.62" y="591.19" class="st4" v:langID="2052"><v:paragraph v:horizAlign="1"/><v:tabList/>endIF</text>		</g>
	</g>
</svg>
